<svg width="125" height="125" viewBox="0 0 125 125" fill="none" xmlns="http://www.w3.org/2000/svg">
<path fill-rule="evenodd" clip-rule="evenodd" d="M62.5 124C96.4655 124 124 96.4655 124 62.5C124 28.5345 96.4655 1 62.5 1C28.5345 1 1 28.5345 1 62.5C1 96.4655 28.5345 124 62.5 124Z" stroke="#979797"/>
<path d="M83.827 43.9505H43.2001L40.8185 35.7659C40.6864 35.312 40.2725 35 39.8024 35H33.0586C32.4739 35 31.9998 35.477 31.9998 36.0651C31.9998 36.6534 32.4739 37.1303 33.0586 37.1303H39.009L41.3905 45.3144L47.4432 66.1163L42.8689 73.5436C42.6665 73.8721 42.657 74.2851 42.8438 74.6227C43.0308 74.9604 43.3848 75.1697 43.769 75.1697H45.9405C45.2484 76.08 44.8362 77.2164 44.8362 78.4482C44.8362 81.4307 47.2482 83.8571 50.2129 83.8571C53.1777 83.8571 55.5898 81.4307 55.5898 78.4482C55.5898 77.2164 55.1775 76.08 54.4854 75.1697H70.2719C69.5799 76.08 69.1675 77.2164 69.1675 78.4482C69.1675 81.4307 71.5797 83.8571 74.5444 83.8571C77.5092 83.8571 79.9211 81.4307 79.9211 78.4482C79.9211 75.4658 77.5092 73.0394 74.5444 73.0394C74.4687 73.0394 74.3936 73.0421 74.3186 73.0451C74.2824 73.0414 74.2456 73.0394 74.2086 73.0394H45.6705L49.182 67.338H78.0442C79.0049 67.338 79.8392 66.717 80.1202 65.7928L85.9029 46.7733C86.1064 46.1042 85.9858 45.3979 85.5723 44.8355C85.1586 44.273 84.5225 43.9505 83.827 43.9505Z" fill="white" stroke="#979797"/>
</svg>
