<?xml version="1.0" encoding="utf-8"?>
<!-- Generator: Adobe Illustrator 23.0.0, SVG Export Plug-In . SVG Version: 6.00 Build 0)  -->
<svg version="1.1" id="Layer_1" xmlns="http://www.w3.org/2000/svg" xmlns:xlink="http://www.w3.org/1999/xlink" x="0px" y="0px"
	 viewBox="0 0 267 46" style="enable-background:new 0 0 267 46;" xml:space="preserve">
<style type="text/css">
	.st0{fill-rule:evenodd;clip-rule:evenodd;fill:#FFFFFF;}
	.st1{fill-rule:evenodd;clip-rule:evenodd;fill:#FF0000;}
</style>
<path class="st0" d="M43.2,19.8c-0.3,0-0.6-0.3-0.6-0.6v-5.4l0,0c0-1.7-1.4-3.1-3.1-3.1s-3.1,1.3-3.1,3l0,0l0,0v19.2l0,0
	c0,1.7,1.4,3.1,3.1,3.1s3.1-1.4,3.1-3.1l0,0v-7c0-0.3,0.3-0.6,0.6-0.6h4.5c0.3,0,0.6,0.3,0.6,0.6v7l0,0l0,0c0,1.7,1.4,3.1,3.1,3.1
	c1.7,0,3.1-1.4,3.1-3.1l0,0V13.8l0,0c0-1.7-1.4-3.1-3.1-3.1c-1.7,0-3.1,1.4-3.1,3.1v5.4c0,0.3-0.3,0.6-0.6,0.6L43.2,19.8L43.2,19.8z
	 M21.5,18.3c-0.1,0.2-0.3,0.2-0.5,0l-4.2-6.5l0,0c-0.6-0.8-1.5-1.3-2.5-1.3c-0.1,0-0.2,0-0.3,0c-0.1,0-0.2,0-0.3,0
	c-1.7,0-3.1,1.4-3.1,3.1l0,0v19.2c0,1.7,1.4,3.1,3.1,3.1s3.1-1.4,3.1-3.1v-9.4c0-0.1,0-0.1,0.1-0.1H17l-0.2-0.2l1.9,2.3
	c0.1,0.1,0.1,0.2,0.2,0.3l0,0l0,0c0.6,0.6,1.4,1,2.3,1c0.9,0,1.7-0.4,2.3-1l0,0l0,0c0.1-0.1,0.2-0.2,0.2-0.3l1.9-2.3l-0.2,0.2
	c0,0,0,0,0.1,0s0.1,0,0.1,0.1v9.4l0,0l0,0c0,1.7,1.4,3.1,3.1,3.1c1.7,0,3.1-1.4,3.1-3.1V13.6v-0.2l0,0c-0.1-1.6-1.5-2.9-3.1-2.9
	c-0.1,0-0.2,0-0.3,0c-0.1,0-0.2,0-0.3,0c-1.1,0-2,0.6-2.6,1.4l0,0l0,0L21.5,18.3L21.5,18.3z M92.7,16.4H95c-1.3,0-2.3,1-2.3,2.3
	V16.4z M86.5,13.5L86.5,13.5v3.7c0-3.7,3-6.6,6.6-6.6H98c1.6,0,2.9,1.3,2.9,2.9s-1.3,2.9-2.9,2.9h-5.3v16.4c0,1.7-1.4,3.1-3.1,3.1
	s-3.1-1.4-3.1-3.1V13.5z M83.5,23.1c0,7.1-5.7,12.8-12.8,12.8c-7.1,0-12.8-5.7-12.8-12.8s5.7-12.8,12.8-12.8S83.5,16,83.5,23.1z
	 M71.1,15.7l1.3,3.2c0.7,1.5,0.2,1.1,1.8,1.3l3.5,0.3c0.6,0.1,0.8,0.4,0.3,0.9l-2.7,2.3c-1.2,1.1-1,0.5-0.7,2.1l0,0l0.8,3.4
	c0.1,0.6-0.2,0.8-0.7,0.5l-3-1.8c-1.4-0.8-0.8-0.8-2.2,0l-3,1.8c-0.6,0.3-0.9,0.1-0.7-0.5l0.8-3.4c0.3-1.6,0.5-1-0.7-2.1l-2.7-2.3
	c-0.5-0.4-0.4-0.8,0.3-0.9l3.5-0.3c1.6-0.2,1.1,0.2,1.8-1.3l1.3-3.2C70.5,15.1,70.9,15.1,71.1,15.7z M127.1,23.1
	c0,7.1-5.7,12.8-12.8,12.8c-7.1,0-12.8-5.7-12.8-12.8s5.7-12.8,12.8-12.8C121.3,10.3,127.1,16,127.1,23.1z M114.7,15.7l1.3,3.2
	c0.7,1.5,0.2,1.1,1.8,1.3l3.5,0.3c0.6,0.1,0.8,0.4,0.3,0.9l-2.7,2.3c-1.2,1.1-1,0.5-0.7,2.1l0,0l0.8,3.4c0.1,0.6-0.2,0.8-0.7,0.5
	l-3-1.8c-1.4-0.8-0.8-0.8-2.2,0l-3,1.8c-0.6,0.3-0.9,0.1-0.7-0.5l0.8-3.4c0.3-1.6,0.5-1-0.7-2.1l-2.7-2.3c-0.5-0.4-0.4-0.8,0.3-0.9
	l3.5-0.3l0,0c1.6-0.2,1.1,0.2,1.8-1.3l1.3-3.2C114,15.1,114.4,15.1,114.7,15.7z"/>
<path class="st0" d="M179.1,29.2V17.1c0-3.7,3-6.6,6.6-6.6h6.2c1.6,0,2.9,1.3,2.9,2.9s-1.3,2.9-2.9,2.9c-0.2,0-0.3,0-0.5,0h-4.6
	c-0.9,0-1.7,0.8-1.7,1.7c0,0.9,0.8,1.7,1.7,1.7h1.4c4.9,0,8.2,3.2,8.2,7.9c0,5-3.3,8.3-8.2,8.3h-3.3
	C181.7,35.5,179.1,32.6,179.1,29.2z M148.2,18.2c-0.1,0.2-0.3,0.2-0.5,0l-4.2-6.5l0,0c-0.6-0.8-1.5-1.3-2.5-1.3c-0.1,0-0.2,0-0.3,0
	s-0.2,0-0.3,0c-1.7,0-3.1,1.4-3.1,3.1l0,0v19.2c0,1.7,1.4,3.1,3.1,3.1s3.1-1.4,3.1-3.1v-9.4c0-0.1,0-0.1,0.1-0.1h0.1l-0.2-0.2
	l1.9,2.3c0.1,0.1,0.1,0.2,0.2,0.3l0,0l0,0c0.6,0.6,1.4,1,2.3,1c0.9,0,1.7-0.4,2.3-1l0,0l0,0c0.1-0.1,0.2-0.2,0.2-0.3l1.9-2.3
	l-0.2,0.2c0,0,0,0,0.1,0s0.1,0,0.1,0.1v9.4l0,0l0,0c0,1.7,1.4,3.1,3.1,3.1c1.7,0,3.1-1.4,3.1-3.1V13.5v-0.2l0,0
	c-0.1-1.6-1.5-2.9-3.1-2.9c-0.1,0-0.2,0-0.3,0s-0.2,0-0.3,0c-1.1,0-2,0.6-2.6,1.4l0,0l0,0L148.2,18.2L148.2,18.2z M250.8,23.7
	c0-0.3-0.1-0.3-0.2-0.2l-6.4,10.8l0,0c-0.5,1-1.6,1.7-2.8,1.7h-0.1h-0.1c-1.7,0-3.1-1.4-3.1-3.1v-0.1l0,0V13.6l0,0l0,0l0,0l0,0
	c0-1.7,1.4-3.1,3.1-3.1c1.7,0,3.1,1.4,3.1,3.1l0,0l0,0V22c0,0.3,0.1,0.3,0.2,0.1l-0.2,0.3l0,0l6.5-10.7c0,0,0-0.1,0.1-0.1l0,0l0,0
	c0.6-0.9,1.5-1.4,2.6-1.4h0.1h0.1c1.7,0,3.1,1.4,3.1,3.1v19.3l0,0c0,1.7-1.4,3.1-3.1,3.1c-1.7,0-3.1-1.4-3.1-3.1l0,0v-8.9H250.8z
	 M162.4,29.2V17.1c0-3.7,3-6.6,6.6-6.6h4.1c1.6,0,2.9,1.3,2.9,2.9s-1.3,2.9-2.9,2.9H170c-1,0-1.8,0.8-1.8,1.8s0.8,1.8,1.8,1.8h2.5
	c1.6,0,2.9,1.3,2.9,2.9s-1.3,2.9-2.9,2.9l0,0h-2.2c-1.1,0-2.1,0.9-2.1,2.1c0,1.1,0.9,2.1,2.1,2.1h3c1.7,0,3,1.4,3,3c0,1.7-1.4,3-3,3
	c-0.2,0-0.3,0-0.4,0h-4.4C165,35.5,162.4,32.6,162.4,29.2z M199.7,29.2V17.1c0-3.7,3-6.6,6.6-6.6h4.1c1.6,0,2.9,1.3,2.9,2.9
	s-1.3,2.9-2.9,2.9h-3.2c-1,0-1.8,0.8-1.8,1.8s0.8,1.8,1.8,1.8h2.5c1.6,0,2.9,1.3,2.9,2.9s-1.3,2.9-2.9,2.9l0,0h-2.2
	c-1.1,0-2.1,0.9-2.1,2.1c0,1.1,0.9,2.1,2.1,2.1h3c1.7,0,3,1.4,3,3c0,1.7-1.4,3-3,3c-0.2,0-0.3,0-0.4,0h-4.4
	C202.3,35.5,199.7,32.6,199.7,29.2z M226.6,10.5h1.4c3.7,0,6.6,3,6.6,6.6v15.6c0,1.7-1.4,3.1-3.1,3.1c-1.7,0-3.1-1.4-3.1-3.1v-0.1
	l0,0V18c0-0.9-0.7-1.7-1.7-1.7c-0.8,0-1.4,0.5-1.6,1.2l-2.2,15.1l0,0c0,1.7-1.4,3.1-3.1,3.1c-1.7,0-3.1-1.4-3.1-3.1
	c0-0.1,0-0.1,0-0.2l0,0l0,0c0-0.2,0-0.3,0.1-0.5l2.5-17l-0.3,2.2C219.6,13.5,223,10.5,226.6,10.5L226.6,10.5z M199.7,13.5v-0.1v-0.1
	V13.5z M162.4,13.5v-0.1v-0.1V13.5z M187.8,23.9l0.6,1.6c0.3,0.7,0.1,0.5,0.9,0.6l1.7,0.1c0.3,0,0.4,0.2,0.1,0.4l-1.3,1.1
	c-0.6,0.6-0.5,0.3-0.3,1l0.4,1.7c0.1,0.3-0.1,0.4-0.4,0.3l-1.5-0.9c-0.7-0.4-0.4-0.4-1.1,0l-1.5,0.9c-0.3,0.2-0.4,0-0.4-0.3l0.4-1.7
	c0.2-0.8,0.3-0.5-0.3-1l-1.3-1.1c-0.2-0.2-0.2-0.4,0.1-0.4l1.7-0.1c0.8-0.1,0.5,0.1,0.9-0.6l0.6-1.6
	C187.5,23.7,187.7,23.7,187.8,23.9z"/>
<path class="st1" d="M42.7,19.3c-0.3,0-0.6-0.3-0.6-0.6v-5.4l0,0c0-1.7-1.4-3.1-3.1-3.1s-3.1,1.3-3.1,3l0,0l0,0v19.2l0,0
	c0,1.7,1.4,3.1,3.1,3.1s3.1-1.4,3.1-3.1l0,0v-7c0-0.3,0.3-0.6,0.6-0.6h4.5c0.3,0,0.6,0.3,0.6,0.6v7l0,0l0,0c0,1.7,1.4,3.1,3.1,3.1
	c1.7,0,3.1-1.4,3.1-3.1l0,0V13.3l0,0c0-1.7-1.4-3.1-3.1-3.1c-1.7,0-3.1,1.4-3.1,3.1v5.4c0,0.3-0.3,0.6-0.6,0.6L42.7,19.3L42.7,19.3z
	 M21,17.9c-0.1,0.2-0.3,0.2-0.5,0l-4.2-6.5l0,0c-0.5-0.8-1.4-1.4-2.5-1.4c-0.1,0-0.2,0-0.3,0c-0.1,0-0.2,0-0.3,0
	c-1.7,0-3.1,1.4-3.1,3.1l0,0v19.2c0,1.7,1.4,3.1,3.1,3.1s3.1-1.4,3.1-3.1v-9.4c0-0.1,0-0.1,0.1-0.1h0.1l-0.2-0.2l1.9,2.3
	c0.1,0.1,0.1,0.2,0.2,0.3l0,0l0,0c0.6,0.6,1.4,1,2.3,1c0.9,0,1.7-0.4,2.3-1l0,0l0,0c0.1-0.1,0.2-0.2,0.2-0.3l1.9-2.3l-0.2,0.2
	c0,0,0,0,0.1,0s0.1,0,0.1,0.1v9.4l0,0l0,0c0,1.7,1.4,3.1,3.1,3.1c1.7,0,3.1-1.4,3.1-3.1V13.2V13l0,0c-0.1-1.6-1.5-2.9-3.1-2.9
	c-0.1,0-0.2,0-0.3,0c-0.1,0-0.2,0-0.3,0c-1.1,0-2,0.6-2.6,1.4l0,0l0,0L21,17.9L21,17.9z M92.3,16h2.3c-1.3,0-2.3,1-2.3,2.3V16z
	 M86,13.1L86,13.1v3.7c0-3.7,3-6.6,6.6-6.6h4.9c1.6,0,2.9,1.3,2.9,2.9S99.1,16,97.5,16h-5.3v16.4c0,1.7-1.4,3.1-3.1,3.1
	S86,34.1,86,32.4V13.1z M83.1,22.6c0,7.1-5.7,12.8-12.8,12.8s-12.8-5.7-12.8-12.8S63.2,9.8,70.3,9.8C77.3,9.8,83.1,15.6,83.1,22.6z
	 M70.7,15.2l1.3,3.2c0.7,1.5,0.2,1.1,1.8,1.3l3.5,0.3c0.6,0.1,0.8,0.4,0.3,0.9l-2.7,2.3c-1.2,1.1-1,0.5-0.7,2.1l0,0l0.8,3.4
	c0.1,0.6-0.2,0.8-0.7,0.5l-3-1.8c-1.4-0.8-0.8-0.8-2.2,0l-3,1.8c-0.6,0.3-0.9,0.1-0.7-0.5l0.8-3.4c0.3-1.6,0.5-1-0.7-2.1l-2.7-2.3
	c-0.5-0.4-0.4-0.8,0.3-0.9l3.5-0.3c1.6-0.2,1.1,0.2,1.8-1.3l1.3-3.2C70,14.6,70.4,14.6,70.7,15.2z M126.6,22.6
	c0,7.1-5.7,12.8-12.8,12.8c-7.1,0-12.8-5.7-12.8-12.8s5.7-12.8,12.8-12.8C120.8,9.8,126.6,15.6,126.6,22.6z M114.2,15.2l1.3,3.2
	c0.7,1.5,0.2,1.1,1.8,1.3l3.5,0.3c0.6,0.1,0.8,0.4,0.3,0.9l-2.7,2.3c-1.2,1.1-1,0.5-0.7,2.1l0,0l0.8,3.4c0.1,0.6-0.2,0.8-0.7,0.5
	l-3-1.8c-1.4-0.8-0.8-0.8-2.2,0l-3,1.8c-0.6,0.3-0.9,0.1-0.7-0.5l0.8-3.4c0.3-1.6,0.5-1-0.7-2.1l-2.7-2.3c-0.5-0.4-0.4-0.8,0.3-0.9
	l3.5-0.3l0,0c1.6-0.2,1.1,0.2,1.8-1.3l1.3-3.2C113.6,14.6,114,14.6,114.2,15.2z"/>
<path class="st1" d="M178.6,28.7v-12c0-3.7,3-6.6,6.6-6.6h6.2c1.6,0,2.9,1.3,2.9,2.9s-1.3,2.9-2.9,2.9c-0.2,0-0.3,0-0.5,0h-4.6
	c-0.9,0-1.7,0.8-1.7,1.7c0,0.9,0.8,1.7,1.7,1.7h1.4c4.9,0,8.2,3.2,8.2,7.9c0,5-3.3,8.3-8.2,8.3h-3.3C181.2,35,178.6,32.2,178.6,28.7
	z M147.8,17.7c-0.1,0.2-0.3,0.2-0.5,0l-4.2-6.5l0,0c-0.6-0.8-1.5-1.3-2.5-1.3c-0.1,0-0.2,0-0.3,0s-0.2,0-0.3,0
	c-1.7,0-3.1,1.4-3.1,3.1l0,0v19.2c0,1.7,1.4,3.1,3.1,3.1s3.1-1.4,3.1-3.1v-9.4c0-0.1,0-0.1,0.1-0.1h0.1l-0.2-0.2l1.9,2.3
	c0.1,0.1,0.1,0.2,0.2,0.3l0,0l0,0c0.6,0.6,1.4,1,2.3,1c0.9,0,1.7-0.4,2.3-1l0,0l0,0c0.1-0.1,0.2-0.2,0.2-0.3l1.9-2.3l-0.2,0.2
	c0,0,0,0,0.1,0s0.1,0,0.1,0.1v9.4l0,0l0,0c0,1.7,1.4,3.1,3.1,3.1c1.7,0,3.1-1.4,3.1-3.1V13v-0.2l0,0c-0.1-1.6-1.5-2.9-3.1-2.9
	c-0.1,0-0.2,0-0.3,0s-0.2,0-0.3,0c-1.1,0-2,0.6-2.6,1.4l0,0l0,0L147.8,17.7L147.8,17.7z M250.4,23.2c0-0.3-0.1-0.3-0.2-0.2
	l-6.4,10.8l0,0c-0.5,1-1.6,1.7-2.8,1.7h-0.1h-0.1c-1.7,0-3.1-1.4-3.1-3.1v-0.1l0,0V13.2l0,0l0,0l0,0l0,0c0-1.7,1.4-3.1,3.1-3.1
	c1.7,0,3.1,1.4,3.1,3.1l0,0l0,0v8.3c0,0.3,0.1,0.3,0.2,0.1l-0.2,0.3l0,0l6.5-10.7c0,0,0-0.1,0.1-0.1l0,0l0,0
	c0.6-0.9,1.5-1.4,2.6-1.4h0.1h0.1c1.7,0,3.1,1.4,3.1,3.1v19.3l0,0c0,1.7-1.4,3.1-3.1,3.1c-1.7,0-3.1-1.4-3.1-3.1l0,0v-8.9H250.4z
	 M161.9,28.7v-12c0-3.7,3-6.6,6.6-6.6h4.1c1.6,0,2.9,1.3,2.9,2.9s-1.3,2.9-2.9,2.9h-3.2c-1,0-1.8,0.8-1.8,1.8s0.8,1.8,1.8,1.8h2.5
	c1.6,0,2.9,1.3,2.9,2.9s-1.3,2.9-2.9,2.9l0,0h-2.2c-1.1,0-2.1,0.9-2.1,2.1c0,1.1,0.9,2.1,2.1,2.1h3c1.7,0,3,1.4,3,3c0,1.7-1.4,3-3,3
	c-0.2,0-0.3,0-0.4,0H168C164.5,35,161.9,32.2,161.9,28.7z M199.2,28.7v-12c0-3.7,3-6.6,6.6-6.6h4.1c1.6,0,2.9,1.3,2.9,2.9
	s-1.3,2.9-2.9,2.9h-3.2c-1,0-1.8,0.8-1.8,1.8s0.8,1.8,1.8,1.8h2.5c1.6,0,2.9,1.3,2.9,2.9s-1.3,2.9-2.9,2.9l0,0h-2.2
	c-1.1,0-2.1,0.9-2.1,2.1c0,1.1,0.9,2.1,2.1,2.1h3c1.7,0,3,1.4,3,3c0,1.7-1.4,3-3,3c-0.2,0-0.3,0-0.4,0h-4.4
	C201.8,35,199.2,32.2,199.2,28.7z M226.2,10h1.4c3.7,0,6.6,3,6.6,6.6v15.6c0,1.7-1.4,3.1-3.1,3.1c-1.7,0-3.1-1.4-3.1-3.1v-0.1l0,0
	V17.6c0-0.9-0.7-1.7-1.7-1.7c-0.8,0-1.4,0.5-1.6,1.2l-2.2,15.1l0,0c0,1.7-1.4,3.1-3.1,3.1c-1.7,0-3.1-1.4-3.1-3.1c0-0.1,0-0.1,0-0.2
	l0,0l0,0c0-0.2,0-0.3,0.1-0.5l2.5-17l-0.3,2.2C219.1,13,222.5,10,226.2,10L226.2,10z M199.2,13v-0.1v-0.1V13z M161.9,13v-0.1v-0.1
	V13z M187.4,23.5l0.6,1.6c0.3,0.7,0.1,0.5,0.9,0.6l1.7,0.1c0.3,0,0.4,0.2,0.1,0.4l-1.3,1.1c-0.6,0.6-0.5,0.3-0.3,1l0.4,1.7
	c0.1,0.3-0.1,0.4-0.4,0.3l-1.5-0.9c-0.7-0.4-0.4-0.4-1.1,0l-1.5,0.9c-0.3,0.2-0.4,0-0.4-0.3l0.4-1.7c0.2-0.8,0.3-0.5-0.3-1l-1.3-1.1
	c-0.2-0.2-0.2-0.4,0.1-0.4l1.7-0.1c0.8-0.1,0.5,0.1,0.9-0.6l0.6-1.6C187.1,23.2,187.2,23.2,187.4,23.5z"/>
</svg>
